<svg width="40" height="40" viewBox="0 0 40 40" fill="none" xmlns="http://www.w3.org/2000/svg">
<path d="M40 20C40 31.0457 31.0457 40 20 40C8.95431 40 0 31.0457 0 20C0 8.95431 8.95431 0 20 0C31.0457 0 40 8.95431 40 20ZM16.9765 12.7328C16.5955 12.4607 16.0944 12.4243 15.678 12.6385C15.2617 12.8528 15 13.2818 15 13.75V26.25C15 26.7182 15.2617 27.1472 15.678 27.3615C16.0944 27.5757 16.5955 27.5393 16.9765 27.2672L25.7265 21.0172C26.055 20.7825 26.25 20.4037 26.25 20C26.25 19.5963 26.055 19.2175 25.7265 18.9828L16.9765 12.7328Z" fill="#1ED760"/>
</svg>
