<svg width="40" height="40" viewBox="0 0 40 40" fill="none" xmlns="http://www.w3.org/2000/svg">
<path d="M27.5 13.6655V9.99993H12.5C6.97715 9.99993 2.5 14.4771 2.5 19.9999C2.5 21.5987 2.87425 23.1064 3.53879 24.4436C3.84602 25.0619 3.59391 25.8121 2.97569 26.1193C2.35747 26.4266 1.60724 26.1744 1.30001 25.5562C0.467511 23.881 0 21.9933 0 19.9999C0 13.0964 5.59644 7.49993 12.5 7.49993H27.5V3.83432C27.5 3.30443 28.118 3.01495 28.5251 3.35419L34.4238 8.26979C34.7237 8.51966 34.7237 8.98019 34.4238 9.23006L28.5251 14.1457C28.118 14.4849 27.5 14.1954 27.5 13.6655Z" fill="#34C875"/>
<path d="M37.0243 13.8805C37.6425 13.5733 38.3928 13.8254 38.7 14.4436C39.5325 16.1188 40 18.0066 40 19.9999C40 26.9035 34.4036 32.4999 27.5 32.4999H12.5V36.1655C12.5 36.6954 11.882 36.9849 11.4749 36.6457L5.57617 31.7301C5.27632 31.4802 5.27632 31.0197 5.57617 30.7698L11.4749 25.8542C11.882 25.515 12.5 25.8044 12.5 26.3343V29.9999H27.5C33.0228 29.9999 37.5 25.5228 37.5 19.9999C37.5 18.4012 37.1257 16.8934 36.4612 15.5562C36.154 14.938 36.4061 14.1878 37.0243 13.8805Z" fill="#34C875"/>
</svg>
